<svg xmlns="http://www.w3.org/2000/svg" xmlns:xlink="http://www.w3.org/1999/xlink" viewBox="0,0,256,256" width="50px" height="50px"><g fill="#386aff" fill-rule="nonzero" stroke="none" stroke-width="1" stroke-linecap="butt" stroke-linejoin="miter" stroke-miterlimit="10" stroke-dasharray="" stroke-dashoffset="0" font-family="none" font-weight="none" font-size="none" text-anchor="none" style="mix-blend-mode: normal"><g transform="scale(5.12,5.12)"><path d="M24.98438,2.98633c-0.55152,0.00862 -0.99193,0.46214 -0.98437,1.01367v6c-0.0051,0.36064 0.18438,0.69608 0.49587,0.87789c0.3115,0.18181 0.69676,0.18181 1.00825,0c0.3115,-0.18181 0.50097,-0.51725 0.49587,-0.87789v-6c0.0037,-0.2703 -0.10218,-0.53059 -0.29351,-0.72155c-0.19133,-0.19097 -0.45182,-0.29634 -0.72212,-0.29212zM3.97852,7.99023c-0.42612,0.00363 -0.80314,0.27688 -0.93921,0.68071c-0.13608,0.40383 -0.00132,0.84952 0.3357,1.11031l5,4c0.2791,0.22341 0.65621,0.28091 0.98921,0.15085c0.33301,-0.13007 0.5713,-0.42794 0.6251,-0.78137c0.0538,-0.35343 -0.08508,-0.70872 -0.36431,-0.93197l-5,-4c-0.18183,-0.14997 -0.41079,-0.2309 -0.64648,-0.22852zM45.99219,7.99219c-0.22538,0.00381 -0.44287,0.08364 -0.61719,0.22656l-5,4c-0.27923,0.22326 -0.41811,0.57854 -0.36431,0.93197c0.0538,0.35343 0.29209,0.65131 0.6251,0.78137c0.33301,0.13007 0.71011,0.07256 0.98921,-0.15085l5,-4c0.33972,-0.2645 0.47204,-0.71673 0.32847,-1.12263c-0.14357,-0.4059 -0.53081,-0.67436 -0.96128,-0.66643zM13.52148,16l4.64063,8.24805l6.83789,-8.1582l6.83203,8.15234l4.58008,-8.24219zM38.19531,16.9082l-4.49609,8.0918h11.36133zM11.76758,16.96094l-6.72461,8.03906h11.24805zM25,19.20313l-4.85742,5.79688h9.71484zM5.10352,27l17.14453,17.60742l-5.00391,-17.60742zM19.32422,27l5.67578,19.97266l5.67578,-19.97266zM32.75586,27l-5.00977,17.62305l17.25391,-17.62305z"></path></g></g></svg>
